HIERARCHY
ROOT Hips
{
	OFFSET 0.000000 97.167313 0.000000
	CHANNELS 6 Xposition Yposition Zposition Xrotation Yrotation Zrotation
	JOINT Spine
	{
		OFFSET 0.000000 13.784798 0.064400
		CHANNELS 3 Xrotation Yrotation Zrotation
		JOINT Spine1
		{
			OFFSET 0.000000 12.037903 0.404700
			CHANNELS 3 Xrotation Yrotation Zrotation
			JOINT Spine2
			{
				OFFSET 0.000000 17.795601 0.420200
				CHANNELS 3 Xrotation Yrotation Zrotation
				JOINT Neck
				{
					OFFSET 0.000000 39.131302 11.954600
					CHANNELS 3 Xrotation Yrotation Zrotation
					JOINT Head
					{
						OFFSET 0.000000 14.456192 15.627699
						CHANNELS 3 Xrotation Yrotation Zrotation
						JOINT HeadTop_End
						{
							OFFSET 0.000000 15.703506 7.603401
							CHANNELS 3 Xrotation Yrotation Zrotation
							End Site
							{
								OFFSET 0.000000 17.447403 0.000000
							}
						}
					}
				}
				JOINT LeftShoulder
				{
					OFFSET 17.399500 24.608795 1.168800
					CHANNELS 3 Xrotation Yrotation Zrotation
					JOINT LeftArm
					{
						OFFSET 18.980635 5.765305 1.818600
						CHANNELS 3 Xrotation Yrotation Zrotation
						JOINT LeftForeArm
						{
							OFFSET 49.290169 0.000000 0.000000
							CHANNELS 3 Xrotation Yrotation Zrotation
							JOINT LeftHand
							{
								OFFSET 31.562012 0.000000 0.000000
								CHANNELS 3 Xrotation Yrotation Zrotation
								JOINT LeftHandThumb1
								{
									OFFSET 6.133995 -4.388519 7.076070
									CHANNELS 3 Xrotation Yrotation Zrotation
									JOINT LeftHandThumb2
									{
										OFFSET 6.037666 -3.485840 3.485847
										CHANNELS 3 Xrotation Yrotation Zrotation
										JOINT LeftHandThumb3
										{
											OFFSET 6.496506 -3.750763 3.750761
											CHANNELS 3 Xrotation Yrotation Zrotation
											JOINT LeftHandThumb4
											{
												OFFSET 5.616882 -3.242905 3.242910
												CHANNELS 3 Xrotation Yrotation Zrotation
												End Site
												{
													OFFSET -1.254608 7.132141 0.375429
												}
											}
										}
									}
								}
								JOINT LeftHandPinky1
								{
									OFFSET 18.920792 -0.453171 -11.426712
									CHANNELS 3 Xrotation Yrotation Zrotation
									JOINT LeftHandPinky2
									{
										OFFSET 4.919586 0.000000 0.000000
										CHANNELS 3 Xrotation Yrotation Zrotation
										JOINT LeftHandPinky3
										{
											OFFSET 5.233047 0.000000 0.000000
											CHANNELS 3 Xrotation Yrotation Zrotation
											JOINT LeftHandPinky4
											{
												OFFSET 5.571716 0.000000 0.000000
												CHANNELS 3 Xrotation Yrotation Zrotation
												End Site
												{
													OFFSET -3.459808 4.342407 -0.466164
												}
											}
										}
									}
								}
								JOINT LeftHandRing1
								{
									OFFSET 22.726120 -0.094986 -6.500475
									CHANNELS 3 Xrotation Yrotation Zrotation
									JOINT LeftHandRing2
									{
										OFFSET 6.408615 0.000000 0.000000
										CHANNELS 3 Xrotation Yrotation Zrotation
										JOINT LeftHandRing3
										{
											OFFSET 6.150223 0.000000 0.000000
											CHANNELS 3 Xrotation Yrotation Zrotation
											JOINT LeftHandRing4
											{
												OFFSET 6.145386 0.000000 0.000000
												CHANNELS 3 Xrotation Yrotation Zrotation
												End Site
												{
													OFFSET -3.671402 4.923981 -0.202372
												}
											}
										}
									}
								}
								JOINT LeftHandMiddle1
								{
									OFFSET 23.373947 0.000000 0.000001
									CHANNELS 3 Xrotation Yrotation Zrotation
									JOINT LeftHandMiddle2
									{
										OFFSET 6.996567 0.000000 0.000000
										CHANNELS 3 Xrotation Yrotation Zrotation
										JOINT LeftHandMiddle3
										{
											OFFSET 7.015945 0.000000 0.000000
											CHANNELS 3 Xrotation Yrotation Zrotation
											JOINT LeftHandMiddle4
											{
												OFFSET 7.721573 0.000000 0.000000
												CHANNELS 3 Xrotation Yrotation Zrotation
												End Site
												{
													OFFSET -4.651108 6.158463 0.251582
												}
											}
										}
									}
								}
								JOINT LeftHandIndex1
								{
									OFFSET 21.310577 -0.490082 6.209344
									CHANNELS 3 Xrotation Yrotation Zrotation
									JOINT LeftHandIndex2
									{
										OFFSET 7.536453 0.000000 0.000000
										CHANNELS 3 Xrotation Yrotation Zrotation
										JOINT LeftHandIndex3
										{
											OFFSET 7.512344 0.000000 0.000000
											CHANNELS 3 Xrotation Yrotation Zrotation
											JOINT LeftHandIndex4
											{
												OFFSET 10.212402 0.000000 0.000001
												CHANNELS 3 Xrotation Yrotation Zrotation
												End Site
												{
													OFFSET -5.180801 8.690506 1.388433
												}
											}
										}
									}
								}
							}
						}
					}
				}
				JOINT RightShoulder
				{
					OFFSET -17.399500 24.608795 1.168800
					CHANNELS 3 Xrotation Yrotation Zrotation
					JOINT RightArm
					{
						OFFSET -18.980635 5.765305 1.818600
						CHANNELS 3 Xrotation Yrotation Zrotation
						JOINT RightForeArm
						{
							OFFSET -49.290169 0.000000 0.000000
							CHANNELS 3 Xrotation Yrotation Zrotation
							JOINT RightHand
							{
								OFFSET -31.562012 0.000000 0.000000
								CHANNELS 3 Xrotation Yrotation Zrotation
								JOINT RightHandThumb1
								{
									OFFSET -6.133995 -4.388519 7.076070
									CHANNELS 3 Xrotation Yrotation Zrotation
									JOINT RightHandThumb2
									{
										OFFSET -6.037666 -3.485840 3.485847
										CHANNELS 3 Xrotation Yrotation Zrotation
										JOINT RightHandThumb3
										{
											OFFSET -6.496506 -3.750763 3.750761
											CHANNELS 3 Xrotation Yrotation Zrotation
											JOINT RightHandThumb4
											{
												OFFSET -5.616882 -3.242905 3.242910
												CHANNELS 3 Xrotation Yrotation Zrotation
												End Site
												{
													OFFSET 1.254608 7.132141 0.375429
												}
											}
										}
									}
								}
								JOINT RightHandIndex1
								{
									OFFSET -21.310577 -0.490082 6.209344
									CHANNELS 3 Xrotation Yrotation Zrotation
									JOINT RightHandIndex2
									{
										OFFSET -7.536453 0.000000 0.000000
										CHANNELS 3 Xrotation Yrotation Zrotation
										JOINT RightHandIndex3
										{
											OFFSET -7.512344 0.000000 0.000000
											CHANNELS 3 Xrotation Yrotation Zrotation
											JOINT RightHandIndex4
											{
												OFFSET -10.212402 0.000000 0.000001
												CHANNELS 3 Xrotation Yrotation Zrotation
												End Site
												{
													OFFSET 5.180801 8.690506 1.388433
												}
											}
										}
									}
								}
								JOINT RightHandMiddle1
								{
									OFFSET -23.373947 0.000000 0.000001
									CHANNELS 3 Xrotation Yrotation Zrotation
									JOINT RightHandMiddle2
									{
										OFFSET -6.996567 0.000000 0.000000
										CHANNELS 3 Xrotation Yrotation Zrotation
										JOINT RightHandMiddle3
										{
											OFFSET -7.015945 0.000000 0.000000
											CHANNELS 3 Xrotation Yrotation Zrotation
											JOINT RightHandMiddle4
											{
												OFFSET -7.721573 0.000000 0.000000
												CHANNELS 3 Xrotation Yrotation Zrotation
												End Site
												{
													OFFSET 4.651108 6.158463 0.251582
												}
											}
										}
									}
								}
								JOINT RightHandRing1
								{
									OFFSET -22.726120 -0.094986 -6.500475
									CHANNELS 3 Xrotation Yrotation Zrotation
									JOINT RightHandRing2
									{
										OFFSET -6.408615 0.000000 0.000000
										CHANNELS 3 Xrotation Yrotation Zrotation
										JOINT RightHandRing3
										{
											OFFSET -6.150223 0.000000 0.000000
											CHANNELS 3 Xrotation Yrotation Zrotation
											JOINT RightHandRing4
											{
												OFFSET -6.145386 0.000000 0.000000
												CHANNELS 3 Xrotation Yrotation Zrotation
												End Site
												{
													OFFSET 3.671402 4.923981 -0.202372
												}
											}
										}
									}
								}
								JOINT RightHandPinky1
								{
									OFFSET -18.920792 -0.453171 -11.426712
									CHANNELS 3 Xrotation Yrotation Zrotation
									JOINT RightHandPinky2
									{
										OFFSET -4.919586 0.000000 0.000000
										CHANNELS 3 Xrotation Yrotation Zrotation
										JOINT RightHandPinky3
										{
											OFFSET -5.233047 0.000000 0.000000
											CHANNELS 3 Xrotation Yrotation Zrotation
											JOINT RightHandPinky4
											{
												OFFSET -5.571716 0.000000 0.000000
												CHANNELS 3 Xrotation Yrotation Zrotation
												End Site
												{
													OFFSET 3.459808 4.342407 -0.466164
												}
											}
										}
									}
								}
							}
						}
					}
				}
			}
		}
	}
	JOINT LeftUpLeg
	{
		OFFSET 19.899099 -7.885101 -3.429500
		CHANNELS 3 Xrotation Yrotation Zrotation
		JOINT LeftLeg
		{
			OFFSET 1.745560 -36.997807 10.304700
			CHANNELS 3 Xrotation Yrotation Zrotation
			JOINT LeftFoot
			{
				OFFSET -1.745558 -29.803308 -13.615400
				CHANNELS 3 Xrotation Yrotation Zrotation
				JOINT LeftToeBase
				{
					OFFSET 1.181900 -18.539904 15.226099
					CHANNELS 3 Xrotation Yrotation Zrotation
					JOINT LeftToe_End
					{
						OFFSET -0.863701 1.402801 16.534700
						CHANNELS 3 Xrotation Yrotation Zrotation
						End Site
						{
							OFFSET 0.000000 16.616566 0.000000
						}
					}
				}
			}
		}
	}
	JOINT RightUpLeg
	{
		OFFSET -19.899099 -7.885101 -3.429500
		CHANNELS 3 Xrotation Yrotation Zrotation
		JOINT RightLeg
		{
			OFFSET -1.745560 -36.997807 10.304700
			CHANNELS 3 Xrotation Yrotation Zrotation
			JOINT RightFoot
			{
				OFFSET 1.745558 -29.803308 -13.615400
				CHANNELS 3 Xrotation Yrotation Zrotation
				JOINT RightToeBase
				{
					OFFSET -1.181900 -18.539904 15.226099
					CHANNELS 3 Xrotation Yrotation Zrotation
					JOINT RightToe_End
					{
						OFFSET 0.863701 1.402801 16.534700
						CHANNELS 3 Xrotation Yrotation Zrotation
						End Site
						{
							OFFSET 0.000000 16.616566 0.000000
						}
					}
				}
			}
		}
	}
}
MOTION
Frames: 6
Frame Time: 0.033333
-7.861575 86.975395 2.302464 30.286155 -66.865995 35.251419 4.790293 8.924083 9.304998 15.134393 6.655361 2.175150 15.702393 5.984429 2.151422 3.599553 -1.065458 3.560653 9.871391 -1.286006 3.262645 0.000000 0.000000 0.000000 -7.278137 -24.273529 -11.563363 -16.634062 -19.742336 -64.517004 0.000013 -66.244406 0.000005 -37.013799 52.915917 30.955698 -2.754421 -4.105919 12.430547 2.220402 16.633717 11.122297 -15.817646 3.941379 5.838741 0.000001 0.000002 -0.000001 1.736481 6.599348 -34.611550 5.148764 5.808906 -83.094340 1.144459 3.479980 -36.399871 0.000000 -0.000001 -0.000006 -1.265736 3.153597 -42.259586 6.485992 5.816625 -96.240405 1.726304 4.153439 -45.123805 -0.000002 0.000000 0.000003 -4.041658 0.721727 -45.451224 5.676824 5.848478 -88.290440 1.592109 4.015745 -43.240254 0.000000 0.000000 0.000008 -1.889086 0.178606 -28.369455 6.520219 5.812802 -96.578199 3.504196 5.361257 -66.316383 -0.000000 0.000003 -0.000001 -3.177836 19.779987 23.571478 -40.729422 14.486944 65.445882 0.000020 38.334894 -0.000020 -39.566627 -30.211426 -8.447532 -4.655854 -21.709797 -24.221753 -15.301977 -16.133749 4.269590 -5.108753 -0.262048 -3.110442 -0.000001 -0.000001 -0.000001 0.205609 -1.034185 -19.565541 2.978032 -4.344563 68.844844 2.352967 -4.048276 60.318589 -0.000002 -0.000003 -0.000000 -3.766479 7.195977 20.871719 5.157855 -4.630236 96.178626 3.334815 -4.465887 73.487494 0.000000 0.000000 -0.000009 -10.359907 9.950758 38.201221 4.469552 -4.653384 87.688762 2.243605 -3.984131 58.757351 -0.000000 -0.000000 0.000000 -10.588009 2.652938 55.844402 1.094256 -3.001100 40.058414 3.568084 -4.528317 76.461946 0.000001 -0.000001 -0.000001 -37.748273 2.216382 -10.251737 20.572818 -7.349864 5.650542 5.716038 -1.370665 -3.585130 -0.429700 1.426977 -1.023562 -0.000000 -0.000000 0.000000 -36.852624 -3.566406 -21.148465 35.509921 0.436601 2.600501 -10.474120 0.422993 8.126308 -1.335605 -0.000015 -0.000000 0.000000 -0.000000 -0.000000 
-7.810195 86.975967 2.346033 30.190088 -66.903588 35.155872 4.786142 8.906978 9.311160 15.133372 6.651092 2.185865 15.700831 5.980517 2.163302 3.596714 -1.059482 3.585636 9.904177 -1.202616 3.223504 0.000000 -0.000001 0.000001 -7.265687 -24.299011 -11.531052 -16.547091 -19.749512 -64.451967 0.000005 -66.313671 -0.000019 -37.111720 52.954829 30.905517 -3.075988 -4.036464 12.369650 2.211154 16.572257 11.077526 -15.867083 3.659051 5.687207 0.000001 -0.000002 0.000001 1.737702 6.600561 -34.628878 5.146277 5.808605 -83.069389 1.142957 3.477903 -36.375060 0.000003 0.000002 -0.000002 -1.266016 3.157072 -42.293624 6.485417 5.816693 -96.234667 1.725887 4.153040 -45.118143 -0.000001 -0.000001 0.000005 -4.038785 0.720958 -45.433230 5.677926 5.848507 -88.301048 1.592110 4.015746 -43.240254 -0.000001 0.000000 0.000001 -1.888332 0.174933 -28.344839 6.521704 5.812642 -96.592761 3.505550 5.361853 -66.330877 -0.000000 0.000003 0.000003 -3.174831 19.747591 23.574856 -40.608282 14.540447 65.435412 0.000012 38.465037 0.000000 -39.713589 -30.200778 -8.628414 -4.655196 -21.685296 -24.217684 -15.316235 -16.110085 4.258140 -5.123899 -0.257873 -3.103672 -0.000001 -0.000003 -0.000001 0.191958 -1.071721 -19.613366 2.980593 -4.345543 68.878708 2.355351 -4.049654 60.352535 -0.000003 -0.000005 -0.000000 -3.775743 7.229059 20.860301 5.158240 -4.630197 96.183059 3.334816 -4.465887 73.487501 0.000001 0.000000 -0.000001 -10.368252 9.952915 38.218276 4.468415 -4.653373 87.674473 2.243606 -3.984130 58.757344 -0.000000 -0.000000 -0.000003 -10.577220 2.667680 55.777234 1.095545 -3.002612 40.083064 3.570052 -4.528776 76.486678 0.000000 -0.000001 0.000007 -37.723739 2.212229 -10.288118 20.573155 -7.308878 5.650481 5.743590 -1.382273 -3.543278 -0.443238 1.435551 -1.026452 -0.000000 0.000000 0.000000 -36.864693 -3.651149 -21.199230 35.477877 0.491073 2.570045 -10.410469 0.482257 8.155336 -1.346581 0.000010 -0.000001 -0.000000 0.000000 0.000000 
-7.758574 86.972504 2.378779 30.067169 -66.928580 35.035250 4.803351 8.878063 9.297023 15.132795 6.633941 2.189223 15.697315 5.965647 2.165856 3.565394 -1.040525 3.603972 9.907671 -1.067682 3.212492 -0.000000 -0.000001 -0.000000 -7.254462 -24.272033 -11.498629 -16.476954 -19.744456 -64.441558 0.000003 -66.390067 -0.000023 -37.122963 52.979814 30.869846 -3.359201 -3.986369 12.314206 2.201011 16.522742 11.040085 -15.912059 3.404114 5.549278 0.000000 0.000002 0.000001 1.738895 6.601683 -34.644751 5.144258 5.808345 -83.049759 1.141777 3.476314 -36.355536 0.000001 -0.000000 -0.000000 -1.266840 3.158962 -42.319087 6.484651 5.816767 -96.227209 1.725348 4.152507 -45.110712 0.000001 0.000001 0.000002 -4.035692 0.716927 -45.398403 5.678346 5.848522 -88.305330 1.592110 4.015746 -43.240251 -0.000000 0.000000 0.000004 -1.888846 0.170952 -28.330776 6.523317 5.812465 -96.608805 3.507063 5.362506 -66.346907 -0.000001 0.000002 -0.000003 -3.170559 19.732490 23.559932 -40.529694 14.539528 65.473852 0.000008 38.563439 -0.000001 -39.767284 -30.182029 -8.724934 -4.655967 -21.657446 -24.213564 -15.329236 -16.088453 4.248208 -5.138837 -0.253749 -3.098407 -0.000001 -0.000005 0.000001 0.181085 -1.101566 -19.648711 2.980850 -4.345624 68.882150 2.355587 -4.049798 60.356059 -0.000001 -0.000003 0.000003 -3.778459 7.254419 20.831587 5.158931 -4.630117 96.191774 3.334815 -4.465888 73.487494 -0.000000 -0.000000 -0.000006 -10.374909 9.957033 38.227677 4.466952 -4.653289 87.656448 2.243606 -3.984131 58.757351 0.000001 0.000001 -0.000005 -10.568024 2.680015 55.720748 1.096864 -3.004169 40.108332 3.572056 -4.529264 76.512018 -0.000000 0.000000 -0.000003 -37.704533 2.215856 -10.331254 20.580234 -7.316395 5.653655 5.778339 -1.365010 -3.504023 -0.450721 1.436657 -1.025198 -0.000000 0.000001 -0.000000 -36.854697 -3.679175 -21.233661 35.467379 0.504291 2.539006 -10.364710 0.506205 8.200504 -1.337205 -0.000008 0.000004 0.000000 -0.000000 -0.000000 
-7.708122 86.963791 2.401242 29.923851 -66.943613 34.894900 4.809462 8.845212 9.280156 15.126041 6.617633 2.192946 15.687669 5.952521 2.168746 3.567681 -1.026113 3.625823 9.848131 -0.972308 3.214861 -0.000000 -0.000002 -0.000000 -7.262544 -24.288076 -11.521787 -16.372880 -19.718077 -64.381069 -0.000021 -66.463519 -0.000032 -37.147077 52.997272 30.859515 -3.608869 -3.950371 12.268844 2.192034 16.482100 11.011196 -15.952694 3.175789 5.424485 0.000001 -0.000000 -0.000004 1.739921 6.602688 -34.659330 5.143047 5.808229 -83.037752 1.141055 3.475333 -36.343635 -0.000003 -0.000000 -0.000001 -1.266899 3.160381 -42.332563 6.483869 5.816841 -96.219395 1.724784 4.151941 -45.102915 0.000000 -0.000002 -0.000002 -4.030519 0.711045 -45.344171 5.678243 5.848506 -88.304558 1.592108 4.015746 -43.240254 0.000001 -0.000002 0.000004 -1.888918 0.169463 -28.324357 6.525148 5.812233 -96.627076 3.508764 5.363269 -66.365144 -0.000000 0.000001 0.000001 -3.180713 19.744743 23.610511 -40.411644 14.560765 65.411362 0.000010 38.667449 -0.000007 -39.854758 -30.185574 -8.802604 -4.657303 -21.634930 -24.210376 -15.341583 -16.065326 4.237571 -5.151759 -0.249689 -3.092948 0.000001 0.000005 -0.000001 0.174095 -1.120594 -19.674186 2.979979 -4.345311 68.870484 2.354786 -4.049339 60.344441 -0.000003 0.000001 -0.000001 -3.774036 7.272505 20.782148 5.159768 -4.630047 96.202019 3.334815 -4.465887 73.487494 0.000000 0.000001 -0.000004 -10.379206 9.963332 38.227387 4.465502 -4.653237 87.638581 2.243606 -3.984132 58.757344 0.000000 0.000002 0.000004 -10.562527 2.690326 55.678281 1.097000 -3.004308 40.110815 3.572246 -4.529308 76.514518 0.000001 0.000000 0.000004 -37.695210 2.211692 -10.369432 20.596669 -7.319053 5.657689 5.812422 -1.358390 -3.475389 -0.463954 1.427182 -1.014001 -0.000000 0.000001 0.000000 -36.831761 -3.672923 -21.266518 35.474698 0.517267 2.538713 -10.334133 0.491351 8.228608 -1.308533 -0.000014 -0.000005 -0.000000 0.000000 -0.000000 
-7.659505 86.951172 2.414753 29.773194 -66.954350 34.745418 4.804786 8.826414 9.285785 15.119787 6.611437 2.203903 15.679811 5.949098 2.179410 3.575463 -1.025054 3.643240 9.858667 -0.935773 3.193253 -0.000000 0.000002 0.000002 -7.259159 -24.328369 -11.515179 -16.322245 -19.720365 -64.363051 0.000068 -66.456190 0.000054 -37.230726 53.005861 30.870894 -3.828792 -3.920788 12.237115 2.186125 16.445125 10.989777 -15.989355 2.972694 5.313655 -0.000001 0.000002 -0.000002 1.740778 6.603482 -34.671215 5.142455 5.808150 -83.031987 1.140703 3.474872 -36.337935 0.000003 -0.000003 -0.000003 -1.266211 3.161300 -42.334141 6.483287 5.816911 -96.213630 1.724381 4.151509 -45.097209 -0.000001 -0.000001 0.000003 -4.022984 0.705828 -45.281514 5.677966 5.848520 -88.301655 1.592111 4.015746 -43.240251 -0.000000 -0.000001 0.000001 -1.887964 0.169781 -28.317155 6.527328 5.812003 -96.648133 3.510712 5.364097 -66.386194 -0.000000 0.000002 -0.000003 -3.188189 19.730299 23.662946 -40.324098 14.543944 65.353770 0.000020 38.752649 -0.000015 -39.865810 -30.218997 -8.867694 -4.657937 -21.627104 -24.208661 -15.354699 -16.035225 4.222866 -5.158775 -0.248740 -3.083969 -0.000000 -0.000005 0.000001 0.170907 -1.128984 -19.698414 2.979558 -4.345149 68.865184 2.354400 -4.049111 60.339189 -0.000003 -0.000003 0.000001 -3.764250 7.289155 20.710580 5.160399 -4.629947 96.210038 3.334813 -4.465887 73.487501 -0.000000 0.000001 -0.000009 -10.380924 9.971452 38.217415 4.464405 -4.653189 87.625235 2.243607 -3.984130 58.757351 -0.000000 0.000001 0.000000 -10.561463 2.699832 55.647761 1.096117 -3.003276 40.094122 3.570932 -4.528996 76.497750 0.000001 -0.000001 0.000000 -37.693297 2.214492 -10.396120 20.624245 -7.322956 5.659510 5.842268 -1.365189 -3.450680 -0.470183 1.379695 -0.975081 -0.000000 0.000001 0.000000 -36.816253 -3.680969 -21.295799 35.495807 0.527373 2.538038 -10.313216 0.487682 8.248859 -1.329553 -0.000010 0.000000 0.000000 0.000000 -0.000000 
-7.612358 86.937920 2.420434 29.632216 -66.968099 34.601906 4.799706 8.820127 9.274127 15.120113 6.610942 2.204315 15.679206 5.950089 2.180494 3.559370 -1.026381 3.664424 9.892898 -0.884350 3.129639 0.000000 -0.000005 -0.000001 -7.243247 -24.367921 -11.474416 -16.331759 -19.688350 -64.412816 -0.000008 -66.434750 -0.000030 -37.258081 53.010949 30.857736 -4.018347 -3.891125 12.219009 2.185035 16.409663 10.972047 -16.022405 2.793288 5.218126 -0.000001 0.000001 -0.000002 1.741247 6.603945 -34.678728 5.142691 5.808162 -83.034138 1.140831 3.475037 -36.340028 -0.000001 0.000002 -0.000005 -1.265983 3.160887 -42.327850 6.483080 5.816955 -96.211575 1.724224 4.151371 -45.095156 -0.000002 0.000003 0.000005 -4.014762 0.702790 -45.225725 5.677883 5.848502 -88.300754 1.592111 4.015745 -43.240251 0.000001 -0.000000 0.000001 -1.885190 0.171875 -28.302110 6.529769 5.811691 -96.672558 3.513005 5.365099 -66.410537 -0.000001 0.000001 0.000001 -3.180041 19.718119 23.623715 -40.289329 14.506314 65.370279 0.000003 38.781623 0.000005 -39.875105 -30.235318 -8.911344 -4.656195 -21.637787 -24.207669 -15.370041 -15.995191 4.201869 -5.156317 -0.255566 -3.068362 -0.000001 -0.000001 0.000001 0.170030 -1.130600 -19.733666 2.980254 -4.345412 68.874016 2.355044 -4.049461 60.348013 -0.000002 -0.000002 0.000001 -3.753073 7.311105 20.624245 5.160669 -4.629953 96.213180 3.334813 -4.465887 73.487508 0.000001 0.000000 -0.000001 -10.380947 9.979475 38.203393 4.464097 -4.653192 87.621246 2.243606 -3.984129 58.757344 0.000001 0.000002 0.000000 -10.565716 2.710335 55.625867 1.095324 -3.002362 40.078850 3.569737 -4.528707 76.482464 -0.000002 -0.000002 0.000004 -37.696091 2.221839 -10.398995 20.654456 -7.305396 5.647503 5.867869 -1.401536 -3.425438 -0.478936 1.383524 -0.975594 0.000000 -0.000000 0.000000 -36.799966 -3.678719 -21.312668 35.518353 0.525055 2.540064 -10.292357 0.486399 8.266751 -1.333093 -0.000004 0.000001 -0.000000 0.000000 -0.000000 
